<svg width="20" height="20" viewBox="0 0 20 20" fill="none" xmlns="http://www.w3.org/2000/svg">
<path fill-rule="evenodd" clip-rule="evenodd" d="M4.40639 3.21475C4.27234 3.46132 4.10308 3.69073 3.89894 3.89485C3.68487 4.10861 3.44227 4.28303 3.18217 4.42065C2.87134 4.58514 3.11704 4.93749 3.11704 4.93749C3.43518 5.42145 3.72526 5.9077 3.9651 6.3313L2.35493 7.93998H0.791764C0.491136 7.93998 0.247437 8.18386 0.247437 8.48453C0.247437 8.78505 0.491136 9.02893 0.791764 9.02893H2.58002C2.72475 9.02893 2.86307 8.9716 2.96514 8.86961L8.84943 2.99203C8.95164 2.88983 9.00898 2.75118 9.00898 2.60688V0.810137C9.00898 0.509336 8.76521 0.26594 8.46452 0.26594C8.16355 0.26594 7.91978 0.509268 7.91978 0.810137V2.38119L6.31602 3.98271C5.88313 3.72725 5.37995 3.41405 4.88139 3.06962C4.88132 3.06976 4.59571 2.86647 4.40639 3.21475ZM1.83285 3.66083C1.34311 3.66083 0.88286 3.47035 0.536333 3.12442C0.190425 2.77882 0 2.31911 0 1.83039C0 1.34132 0.190494 0.882019 0.536333 0.536493C0.882792 0.19083 1.34311 0.000150681 1.83285 1.33514e-05C2.32232 1.33514e-05 2.78263 0.190899 3.12881 0.536493C3.475 0.882088 3.6657 1.34152 3.6657 1.83039C3.6657 2.31918 3.47493 2.77889 3.12881 3.12442C2.7827 3.47035 2.32232 3.66083 1.83285 3.66083ZM6.95871 7.43609C6.71735 7.19497 6.32244 7.19497 6.08109 7.43602L5.4739 8.04252C5.23255 8.28357 5.23255 8.67809 5.4739 8.91915L15.8388 19.272C16.0802 19.5131 16.5556 19.7356 16.8953 19.7665L19.4359 19.9974C19.7756 20.0283 20.0283 19.7757 19.9974 19.436L19.7668 16.9006C19.7359 16.5609 19.5132 16.0857 19.2718 15.8446L8.90631 5.4905C8.66495 5.24944 8.27004 5.24944 8.02869 5.4905L7.42068 6.09782C7.17932 6.33887 7.17932 6.73339 7.42068 6.97452L16.099 15.6439C16.2268 15.7712 16.227 15.9782 16.0992 16.1057C15.9719 16.2334 15.7648 16.2334 15.6369 16.1058L6.95871 7.43609Z" fill="#5A4CFF"/>
</svg>
