<svg width="36" height="36" viewBox="0 0 36 36" fill="none" xmlns="http://www.w3.org/2000/svg">
<path d="M11.57 30.8804L15.6657 28.6312C17.1187 27.8333 18.8813 27.8333 20.3343 28.6312L24.43 30.8804C28.3877 33.0537 32.8582 29.1314 31.1103 24.9824C29.6966 21.6266 28.2273 18.2646 27.0603 15.8825C25.3973 12.4883 23.3737 9.15137 21.6611 6.52121C19.9063 3.82626 16.0937 3.82626 14.3389 6.52121C12.6263 9.15137 10.6027 12.4883 8.93975 15.8825C7.77269 18.2646 6.30339 21.6266 4.88968 24.9824C3.14181 29.1314 7.61234 33.0537 11.57 30.8804Z" fill="url(#paint0_linear_1559_84)" fill-opacity="0.33"/>
<defs>
<linearGradient id="paint0_linear_1559_84" x1="18" y1="4.5" x2="18" y2="31.5" gradientUnits="userSpaceOnUse">
<stop stop-color="#5A4CFF"/>
<stop offset="1" stop-color="#6CFF60"/>
</linearGradient>
</defs>
</svg>
