<svg width="18" height="14" viewBox="0 0 18 14" fill="none" xmlns="http://www.w3.org/2000/svg">
<path d="M14.8327 0.333252H3.16602C2.50297 0.333252 1.86709 0.596644 1.39825 1.06549C0.929408 1.53433 0.666016 2.17021 0.666016 2.83325V11.1666C0.666016 11.8296 0.929408 12.4655 1.39825 12.9344C1.86709 13.4032 2.50297 13.6666 3.16602 13.6666H14.8327C15.4957 13.6666 16.1316 13.4032 16.6005 12.9344C17.0693 12.4655 17.3327 11.8296 17.3327 11.1666V2.83325C17.3327 2.17021 17.0693 1.53433 16.6005 1.06549C16.1316 0.596644 15.4957 0.333252 14.8327 0.333252V0.333252ZM14.491 1.99992L9.59102 6.89992C9.51355 6.97803 9.42138 7.04002 9.31983 7.08233C9.21828 7.12464 9.10936 7.14642 8.99935 7.14642C8.88934 7.14642 8.78042 7.12464 8.67887 7.08233C8.57732 7.04002 8.48515 6.97803 8.40768 6.89992L3.50768 1.99992H14.491ZM15.666 11.1666C15.666 11.3876 15.5782 11.5996 15.4219 11.7558C15.2657 11.9121 15.0537 11.9999 14.8327 11.9999H3.16602C2.945 11.9999 2.73304 11.9121 2.57676 11.7558C2.42048 11.5996 2.33268 11.3876 2.33268 11.1666V3.17492L7.23268 8.07492C7.70143 8.54309 8.33685 8.80605 8.99935 8.80605C9.66185 8.80605 10.2973 8.54309 10.766 8.07492L15.666 3.17492V11.1666Z" fill="#EAE7D6"/>
</svg>
