<svg width="18" height="18" viewBox="0 0 18 18" fill="none" xmlns="http://www.w3.org/2000/svg">
<path d="M8.99915 0.666748C7.38288 0.669819 5.80238 1.14284 4.45017 2.0282C3.09796 2.91355 2.03239 4.17303 1.38326 5.65322C0.734134 7.13341 0.529459 8.77043 0.794167 10.3649C1.05888 11.9593 1.78154 13.4424 2.87415 14.6334V14.6334C3.6545 15.4793 4.6016 16.1544 5.65576 16.6161C6.70992 17.0778 7.8483 17.3162 8.99915 17.3162C10.15 17.3162 11.2884 17.0778 12.3425 16.6161C13.3967 16.1544 14.3438 15.4793 15.1241 14.6334V14.6334C16.2167 13.4424 16.9394 11.9593 17.2041 10.3649C17.4688 8.77043 17.2642 7.13341 16.615 5.65322C15.9659 4.17303 14.9003 2.91355 13.5481 2.0282C12.1959 1.14284 10.6154 0.669819 8.99915 0.666748V0.666748ZM8.99915 15.6667C7.27287 15.6641 5.61491 14.992 4.37415 13.7917C4.75085 12.8747 5.39167 12.0903 6.21519 11.5383C7.03871 10.9863 8.00774 10.6916 8.99915 10.6916C9.99056 10.6916 10.9596 10.9863 11.7831 11.5383C12.6066 12.0903 13.2474 12.8747 13.6241 13.7917C12.3834 14.992 10.7254 15.6641 8.99915 15.6667ZM7.33248 7.33342C7.33248 7.00378 7.43023 6.68155 7.61336 6.40746C7.7965 6.13338 8.0568 5.91976 8.36134 5.79362C8.66588 5.66747 9.00099 5.63446 9.3243 5.69877C9.6476 5.76308 9.94457 5.92182 10.1777 6.1549C10.4107 6.38799 10.5695 6.68496 10.6338 7.00826C10.6981 7.33157 10.6651 7.66668 10.5389 7.97122C10.4128 8.27576 10.1992 8.53606 9.9251 8.7192C9.65101 8.90233 9.32878 9.00008 8.99915 9.00008C8.55712 9.00008 8.1332 8.82449 7.82063 8.51193C7.50807 8.19937 7.33248 7.77544 7.33248 7.33342ZM14.7575 12.3334C14.0129 11.0599 12.867 10.0693 11.4991 9.51675C11.9235 9.03563 12.1999 8.4423 12.2954 7.80795C12.3908 7.1736 12.3012 6.52518 12.0373 5.9405C11.7733 5.35582 11.3463 4.85971 10.8074 4.51172C10.2685 4.16373 9.64064 3.97862 8.99915 3.97862C8.35765 3.97862 7.72979 4.16373 7.19089 4.51172C6.65199 4.85971 6.22495 5.35582 5.96102 5.9405C5.69709 6.52518 5.60747 7.1736 5.70292 7.80795C5.79837 8.4423 6.07484 9.03563 6.49915 9.51675C5.13131 10.0693 3.98537 11.0599 3.24081 12.3334C2.64743 11.3227 2.33391 10.1721 2.33248 9.00008C2.33248 7.23197 3.03486 5.53628 4.2851 4.28604C5.53534 3.03579 7.23104 2.33341 8.99915 2.33341C10.7673 2.33341 12.4629 3.03579 13.7132 4.28604C14.9634 5.53628 15.6658 7.23197 15.6658 9.00008C15.6644 10.1721 15.3509 11.3227 14.7575 12.3334V12.3334Z" fill="#EAE7D6"/>
</svg>
