<svg width="18" height="18" viewBox="0 0 18 18" fill="none" xmlns="http://www.w3.org/2000/svg">
<path d="M17.092 4.44174L15.9087 3.26674L17.092 2.09174C17.2489 1.93482 17.3371 1.72199 17.3371 1.50007C17.3371 1.27815 17.2489 1.06533 17.092 0.908406C16.9351 0.751487 16.7222 0.66333 16.5003 0.66333C16.2784 0.66333 16.0656 0.751487 15.9087 0.908406L7.12532 9.69174C6.26369 9.12327 5.22172 8.89488 4.2013 9.05081C3.18088 9.20675 2.25467 9.73592 1.60215 10.5358C0.949619 11.3356 0.617231 12.3492 0.669388 13.3802C0.721545 14.4111 1.15453 15.386 1.88445 16.1159C2.61438 16.8459 3.58926 17.2789 4.6202 17.331C5.65115 17.3832 6.66476 17.0508 7.46462 16.3982C8.26448 15.7457 8.79364 14.8195 8.94958 13.7991C9.10552 12.7787 8.87713 11.7367 8.30866 10.8751L12.3753 6.80007L13.5503 7.98341C13.6282 8.06064 13.7205 8.12174 13.8221 8.16321C13.9236 8.20469 14.0323 8.22571 14.142 8.22507C14.2517 8.22571 14.3604 8.20469 14.4619 8.16321C14.5634 8.12174 14.6558 8.06064 14.7337 7.98341C14.8118 7.90594 14.8738 7.81377 14.9161 7.71222C14.9584 7.61067 14.9802 7.50175 14.9802 7.39174C14.9802 7.28173 14.9584 7.17281 14.9161 7.07126C14.8738 6.96971 14.8118 6.87754 14.7337 6.80007L13.5503 5.66674L14.7337 4.48341L15.9087 5.66674C15.9865 5.74397 16.0789 5.80508 16.1804 5.84655C16.2819 5.88802 16.3907 5.90904 16.5003 5.90841C16.61 5.90904 16.7187 5.88802 16.8202 5.84655C16.9218 5.80508 17.0141 5.74397 17.092 5.66674C17.1766 5.5887 17.2441 5.49399 17.2903 5.38858C17.3364 5.28316 17.3603 5.16932 17.3603 5.05424C17.3603 4.93915 17.3364 4.82532 17.2903 4.7199C17.2441 4.61448 17.1766 4.51977 17.092 4.44174V4.44174ZM4.83366 15.6667C4.3392 15.6667 3.85586 15.5201 3.44473 15.2454C3.03361 14.9707 2.71318 14.5803 2.52396 14.1234C2.33474 13.6666 2.28523 13.164 2.38169 12.679C2.47816 12.1941 2.71626 11.7486 3.06589 11.399C3.41552 11.0493 3.86098 10.8112 4.34593 10.7148C4.83088 10.6183 5.33355 10.6678 5.79037 10.857C6.24718 11.0463 6.63763 11.3667 6.91233 11.7778C7.18704 12.1889 7.33366 12.6723 7.33366 13.1667C7.33366 13.8298 7.07027 14.4657 6.60143 14.9345C6.13258 15.4033 5.4967 15.6667 4.83366 15.6667Z" fill="#EAE7D6"/>
</svg>
