<svg width="1920" height="801" viewBox="0 0 1920 801" fill="none" xmlns="http://www.w3.org/2000/svg">
<path d="M1375.52 801C1375.52 752.879 1358.53 712.858 1253.17 658.46C1079.52 568.807 839.924 581.836 823.743 354.857C815.079 233.329 882.359 161.225 1018.69 120.591C1095.64 97.6533 1274.66 105.505 1522.92 209.734C1750.42 305.247 1897.32 305.247 1957 305.247" stroke="url(#paint0_linear_1703_15)" stroke-width="116"/>
<path d="M297.993 0C297.993 50.5 314.647 92.5004 417.923 149.587C588.134 243.674 823 230 838.862 468.202C847.354 595.739 781.403 671.408 647.769 714.051C572.333 738.123 396.853 729.883 153.5 620.5C-69.5 520.265 -213.5 520.265 -272 520.265" stroke="url(#paint1_linear_1703_15)" stroke-width="116"/>
<defs>
<linearGradient id="paint0_linear_1703_15" x1="1390" y1="58" x2="1331.5" y2="736" gradientUnits="userSpaceOnUse">
<stop stop-color="#9E00FF" stop-opacity="0.35"/>
<stop offset="0.458333" stop-color="#00A368" stop-opacity="0.25"/>
<stop offset="1" stop-color="#F0D8FF" stop-opacity="0"/>
</linearGradient>
<linearGradient id="paint1_linear_1703_15" x1="283.5" y1="0" x2="283.5" y2="745" gradientUnits="userSpaceOnUse">
<stop stop-color="#9E00FF" stop-opacity="0.35"/>
<stop offset="0.458333" stop-color="#00A368" stop-opacity="0.25"/>
<stop offset="1" stop-color="#F0D8FF" stop-opacity="0"/>
</linearGradient>
</defs>
</svg>
