<svg width="57" height="61" viewBox="0 0 57 61" fill="none" xmlns="http://www.w3.org/2000/svg">
<circle cx="28.5" cy="31.5" r="28.5" fill="url(#paint0_linear_1703_17)"/>
<path d="M19.8502 46.72C18.8422 46.72 17.9302 46.408 17.1142 45.784C16.2982 45.112 15.7942 44.248 15.6022 43.192L11.2102 19.792C11.1142 18.832 11.3782 18.04 12.0022 17.416C12.6742 16.792 13.4902 16.48 14.4502 16.48C15.2662 16.48 15.9622 16.72 16.5382 17.2C17.1142 17.68 17.4742 18.328 17.6182 19.144L20.2102 34.912C20.3062 35.488 20.5222 35.776 20.8582 35.776C21.1462 35.776 21.3622 35.512 21.5062 34.984L24.9622 22.24C25.2022 21.328 25.6582 20.656 26.3302 20.224C27.0022 19.744 27.7222 19.504 28.4902 19.504C29.2582 19.504 29.9782 19.744 30.6502 20.224C31.3222 20.656 31.7782 21.328 32.0182 22.24L35.4742 34.984C35.6182 35.512 35.8342 35.776 36.1222 35.776C36.5062 35.776 36.7222 35.488 36.7702 34.912L39.3622 19.144C39.5062 18.328 39.8662 17.68 40.4422 17.2C41.0662 16.72 41.7622 16.48 42.5302 16.48C43.4902 16.48 44.2822 16.792 44.9062 17.416C45.5782 18.04 45.8662 18.832 45.7702 19.792L41.3062 43.192C41.1142 44.248 40.6102 45.112 39.7942 45.784C38.9782 46.408 38.0662 46.72 37.0582 46.72C36.1462 46.72 35.2822 46.432 34.4662 45.856C33.6982 45.232 33.1222 44.416 32.7382 43.408L29.1382 30.736C28.9942 30.208 28.7782 29.944 28.4902 29.944C28.1542 29.944 27.9142 30.208 27.7702 30.736L24.1702 43.408C23.8822 44.416 23.3302 45.232 22.5142 45.856C21.6982 46.432 20.8102 46.72 19.8502 46.72Z" fill="#0A0A0F"/>
<defs>
<linearGradient id="paint0_linear_1703_17" x1="28" y1="31" x2="47.5" y2="52.5" gradientUnits="userSpaceOnUse">
<stop stop-color="#01DE8E"/>
<stop offset="1" stop-color="#B0FFE3"/>
</linearGradient>
</defs>
</svg>
