<svg width="1912" height="637" viewBox="0 0 1912 637" fill="none" xmlns="http://www.w3.org/2000/svg">
<path d="M4.00001 459.246C184.89 449.415 428.928 627.892 836.753 565.879C1061.32 531.731 1202.75 477.111 1221.56 305.347C1231.63 213.383 1068.15 81.9682 928.133 65.2342C694.015 37.253 569.872 94.0091 404.59 174.136C261.851 243.334 73.3732 222.06 4 222.06" stroke="url(#paint0_linear_1703_16)" stroke-width="116"/>
<path d="M1908 459.246C1727.11 449.415 1483.07 627.892 1075.25 565.879C850.675 531.731 709.253 477.111 690.443 305.347C680.372 213.383 843.853 81.9682 983.867 65.2342C1217.99 37.253 1342.13 94.0091 1507.41 174.136C1650.15 243.334 1838.63 222.06 1908 222.06" stroke="url(#paint1_linear_1703_16)" stroke-width="116"/>
<defs>
<linearGradient id="paint0_linear_1703_16" x1="743.5" y1="58" x2="744.996" y2="549.608" gradientUnits="userSpaceOnUse">
<stop stop-color="#9E00FF" stop-opacity="0.35"/>
<stop offset="0.458333" stop-color="#00A368" stop-opacity="0.25"/>
<stop offset="1" stop-color="#F0D8FF" stop-opacity="0"/>
</linearGradient>
<linearGradient id="paint1_linear_1703_16" x1="1168.5" y1="58" x2="1167" y2="549.608" gradientUnits="userSpaceOnUse">
<stop stop-color="#9E00FF" stop-opacity="0.35"/>
<stop offset="0.458333" stop-color="#00A368" stop-opacity="0.25"/>
<stop offset="1" stop-color="#F0D8FF" stop-opacity="0"/>
</linearGradient>
</defs>
</svg>
