<svg width="57" height="57" viewBox="0 0 57 57" fill="none" xmlns="http://www.w3.org/2000/svg">
<path d="M57 28.5C57 44.2401 44.2401 57 28.5 57C12.7599 57 0 44.2401 0 28.5C0 12.7599 12.7599 0 28.5 0C44.2401 0 57 12.7599 57 28.5Z" fill="url(#paint0_linear_1703_14)"/>
<path d="M19.8506 43.72C18.8426 43.72 17.9306 43.408 17.1146 42.784C16.2986 42.112 15.7946 41.248 15.6026 40.192L11.2106 16.792C11.1146 15.832 11.3786 15.04 12.0026 14.416C12.6746 13.792 13.4906 13.48 14.4506 13.48C15.2666 13.48 15.9626 13.72 16.5386 14.2C17.1146 14.68 17.4746 15.328 17.6186 16.144L20.2106 31.912C20.3066 32.488 20.5226 32.776 20.8586 32.776C21.1466 32.776 21.3626 32.512 21.5066 31.984L24.9626 19.24C25.2026 18.328 25.6586 17.656 26.3306 17.224C27.0026 16.744 27.7226 16.504 28.4906 16.504C29.2586 16.504 29.9786 16.744 30.6506 17.224C31.3226 17.656 31.7786 18.328 32.0186 19.24L35.4746 31.984C35.6186 32.512 35.8346 32.776 36.1226 32.776C36.5066 32.776 36.7226 32.488 36.7706 31.912L39.3626 16.144C39.5066 15.328 39.8666 14.68 40.4426 14.2C41.0666 13.72 41.7626 13.48 42.5306 13.48C43.4906 13.48 44.2826 13.792 44.9066 14.416C45.5786 15.04 45.8666 15.832 45.7706 16.792L41.3066 40.192C41.1146 41.248 40.6106 42.112 39.7946 42.784C38.9786 43.408 38.0666 43.72 37.0586 43.72C36.1466 43.72 35.2826 43.432 34.4666 42.856C33.6986 42.232 33.1226 41.416 32.7386 40.408L29.1386 27.736C28.9946 27.208 28.7786 26.944 28.4906 26.944C28.1546 26.944 27.9146 27.208 27.7706 27.736L24.1706 40.408C23.8826 41.416 23.3306 42.232 22.5146 42.856C21.6986 43.432 20.8106 43.72 19.8506 43.72Z" fill="#0A0A0F"/>
<defs>
<linearGradient id="paint0_linear_1703_14" x1="28" y1="28" x2="47.5" y2="49.5" gradientUnits="userSpaceOnUse">
<stop stop-color="#AD6CCA"/>
<stop offset="1" stop-color="#E0AFF5"/>
</linearGradient>
</defs>
</svg>
